<svg xmlns="http://www.w3.org/2000/svg" viewBox="0 0 580 112">
  <g data-name="Layer 2">
    <g data-name="Layer 1">
      <path fill="#5ce1e6" d="M0 0h248v112H0z"/>
      <path fill="#1f1f24" d="M248 0h332v112H248z"/>
      <path d="M61.54 17.62A94.71 94.71 0 0 0 49.59 17H20.71v80h18.21V67.84h10.67a94.71 94.71 0 0 0 11.95-.58c11.6-1.39 21.81-9.62 21.81-24.82S73.49 19 61.54 17.62zm-6.26 35.72a49 49 0 0 1-6.38.24h-10V31.3h10a49 49 0 0 1 6.38.24c5.45.69 9 4.06 9 10.9s-3.55 10.21-9 10.9zM113.51 64h37.35V49.87h-37.35V31.19h40V17H95.3v80h59.39V82.81h-41.18zm96.39-46.4A94.71 94.71 0 0 0 198 17h-28.93v80h18.21V67.84H198a94.71 94.71 0 0 0 12-.58c11.6-1.39 21.81-9.62 21.81-24.82S221.85 19 209.9 17.62zm-6.26 35.72a49 49 0 0 1-6.38.24h-10V31.3h10a49 49 0 0 1 6.38.24c5.45.69 9.05 4.06 9.05 10.9s-3.6 10.21-9.05 10.9z"/>
      <path d="M298 49.63c-12.88-3-16.94-6.26-16.94-12.29 0-5.8 4.06-8.47 9.74-8.47 7.66 0 11.83 4.76 12.76 12.18h18.33c-1.74-14.5-10.56-25.64-30.51-25.64-15.54 0-29.34 8.7-29.34 23.67 0 15.31 10.44 21 27.6 25.29 10.91 2.55 14.62 6.37 14.62 11.94s-5.22 8.93-11.83 8.93c-7.31 0-13.69-3.94-15.31-12.18h-18.29c1.39 17.29 14.38 25.64 34 25.64 16 0 30.51-8.35 30.51-23.9-.02-12.64-7.67-20.99-25.34-25.17zm149.79-34.22c-24.82 0-40.25 16.24-40.25 41.65S423 98.7 447.79 98.7s40.13-16.36 40.13-41.64-15.42-41.65-40.13-41.65zm0 69.83c-13.34 0-21.46-10.32-21.46-28.18s8.12-28.19 21.46-28.19 21.34 10.21 21.34 28.19-8.13 28.18-21.34 28.18zm-70.18-67.62a94.71 94.71 0 0 0-11.95-.62h-28.88v80H355V67.84h10.67a94.71 94.71 0 0 0 11.95-.58c11.6-1.39 21.81-9.62 21.81-24.82S389.56 19 377.61 17.62zm-6.26 35.72a49 49 0 0 1-6.38.24H355V31.3h10a49 49 0 0 1 6.38.24c5.45.69 9 4.06 9 10.9s-3.58 10.21-9.03 10.9zM491.06 17v14.19h26.68v65.89h18.09V31.19h26.68V17z" fill="#fff"/>
    </g>
  </g>
</svg>
