<svg xmlns="http://www.w3.org/2000/svg" width="796.737" height="1212.593" viewBox="0 0 796.737 1212.593">
  <defs>
    <style>
      .cls-1 {
        fill: #fff;
      }
    </style>
  </defs>
  <g id="Party_Person_01" data-name="Party Person 01" transform="translate(16679 1493)">
    <g id="body_Fur_Jacket" data-name="body/Fur Jacket" transform="translate(-16679 -1050.448)">
      <path id="_Background" data-name="ðŸŽ¨ Background" class="cls-1" d="M669.957,752.639a12.147,12.147,0,0,1-20.1.574c-50.706,11.814-102.689,7.158-154.1,4.262-144.873-5.9-290.563,12.583-434.85-6.747-15.306-3.061-33.121-1.6-45.645-12.214C-4.767,715.041-.453,679.4,2.738,650.812c25.577-161.164,61.94-323.806,80.079-486.006,1.013-15.45-5.354-34.647-11.062-49.171-1.41-2.7-10.321-5.35-14.945-8.467-14.191-10.186-11.89-28.44.412-39.151C97.053,39.941,152.5,49.752,194.754,60.11c8.1-30.413,17.2-50.415,32.617-52.4,29.345-3.77,100.528-15.292,122.454,0,10.49,7.316,17.222,33.093,24.773,45.65,55.067-.978,166.83-74.652,189.807,8.311,18.668,1.289,37.158,17.587,33.587,37.145,24.211,21.394,5.115,53.473,5.45,80.1,3.183,56.5,33.755,107.027,46.474,161.605,29.073,105.855,61.979,298.4,25.92,401.729.776-.405,2.471.205,1.373,1.064C673.126,744.472,672.6,749.615,669.957,752.639Z" transform="translate(53.079)"/>
      <path id="_Ink" data-name="ðŸ– Ink" d="M71.681,0A114.821,114.821,0,0,0,49.354,1.85a44.553,44.553,0,0,0-15.58,6.2A40.722,40.722,0,0,0,21.855,19.76a33.792,33.792,0,0,0-5.59,15.09,5.643,5.643,0,0,0-1.341-.159,5.965,5.965,0,0,0-3.137.891,5.17,5.17,0,0,0-2.143,2.658C9.078,39.817,8.5,41.4,7.933,42.922l-.009.024C4.431,52.428,1.131,61.383.325,71.69A120.257,120.257,0,0,0,.32,89.31c.343,5.123.943,10.527,1.945,17.521,2.814,19.533,8.317,38.8,13.639,57.428.918,3.214,1.868,6.539,2.791,9.822,1.517,5.4,3.1,10.888,4.639,16.192l0,.005h0c4.069,14.061,8.276,28.6,11.609,43.112a297.665,297.665,0,0,1,5.429,31.428c1.215,10.281,1.939,20.991,2.151,31.833.186,9.66.135,19.481.086,28.979-.064,12.438-.131,25.3.334,37.942a555.523,555.523,0,0,0,5.35,58.42c5.819,40.547,16.734,78.1,32.44,111.63,9.022,19.282,18.165,35.581,27.95,49.83a212.377,212.377,0,0,0,17.6,22.24c2.676,2.953,5.579,6.1,8.67,9.12a31.22,31.22,0,0,0-8.288,3.993,24.855,24.855,0,0,0-6.28,6.13,22.06,22.06,0,0,0-3.553,8.091,25.781,25.781,0,0,0-.109,9.876,30.871,30.871,0,0,0,11.2,18.42c.224.186.466.372.741.569a20.775,20.775,0,0,0-2.806,7.636,23.376,23.376,0,0,0,.158,7.867A30.265,30.265,0,0,0,128.549,685a36.74,36.74,0,0,0,4.315,6.859,54.043,54.043,0,0,0,6.8,7.118,56.585,56.585,0,0,0,8,5.828,55.981,55.981,0,0,0,8.884,4.335,52.531,52.531,0,0,0,9.456,2.64c-.04.115-.08.233-.119.35l-.03.09-.019.055c-.044.129-.087.258-.131.385a20.673,20.673,0,0,0,0,12.948,22.626,22.626,0,0,0,7.5,10.593c9.674,7.7,23.422,13.2,42.03,16.81a143.344,143.344,0,0,0,27.19,2.582,153.026,153.026,0,0,0,20.66-1.421,127.978,127.978,0,0,0,21.81-5.011l.513-.165c7.253-2.332,14.753-4.744,21.368-8.555,4.578-2.631,11.5-6.606,16.346-11.619a22.923,22.923,0,0,0,5.309-8.1,15.956,15.956,0,0,0,.275-9.843,1.4,1.4,0,0,0-1.366-1.114,1.715,1.715,0,0,0-1.674,1.524c-.674,6.149-9.463,9.62-15.88,12.155-1.367.54-2.657,1.049-3.709,1.524a145.058,145.058,0,0,1-20.69,7.872,139.43,139.43,0,0,1-37.561,5.085c-2.072,0-4.171-.046-6.239-.136a131.183,131.183,0,0,1-21.812-2.808,127.478,127.478,0,0,1-21.018-6.452c-.7-.285-1.614-.6-2.668-.973-4.5-1.576-11.307-3.958-12.672-7.589-.6-1.584-.016-3.414,1.731-5.44a28.444,28.444,0,0,1,5.309-4.519c.655-.466,1.262-.871,1.82-1.24a9.08,9.08,0,0,0,3.7-5.067,10.621,10.621,0,0,0-.069-5.988,9.359,9.359,0,0,0-2.766-4.388,7.333,7.333,0,0,0-4.859-1.812,9.35,9.35,0,0,0-3.053.544,20.391,20.391,0,0,1-2.24.641,24.433,24.433,0,0,1-5.515.614,33.255,33.255,0,0,1-12.415-2.592,44.668,44.668,0,0,1-10.869-6.342c-3.535-2.794-7.651-6.526-8.11-10.62-.118-1.06-.141-1.336-.079-1.4.02-.023.051-.023.089-.023h.013c.111,0,.342,0,.647-.833a1.808,1.808,0,0,1,.221-.44l.095.037.038.015c.606.239,1.232.486,1.857.738a7.175,7.175,0,0,0,2.693.518,9.464,9.464,0,0,0,5.429-1.895,11.047,11.047,0,0,0,3.639-4.393,9.706,9.706,0,0,0,.288-6.971,10.179,10.179,0,0,0-4.369-5.479,18.108,18.108,0,0,0-5.6-2.241,40.855,40.855,0,0,1-7.624-3.952,15.077,15.077,0,0,1-5.426-5.917c-.929-2.039-1.091-3.6-.493-4.78.629-1.24,2.076-2.057,4.553-2.569a27.058,27.058,0,0,1,5.549-.522,78.482,78.482,0,0,1,14.139,1.776l.453.085a239.277,239.277,0,0,1,23.98,6c3.926,1.164,7.934,2.4,11.811,3.6,10.076,3.107,20.495,6.321,30.873,8.709,5.591,1.287,10.7,2.232,15.627,2.891a117.841,117.841,0,0,0,15.744,1.1,90.973,90.973,0,0,0,22.356-2.666c-.37.895-.737,1.817-1.06,2.631a1.357,1.357,0,0,0,.093,1.315,1.855,1.855,0,0,0,1.52.725,1.721,1.721,0,0,0,1.467-.739c1.493-2.23,3-4.545,4.48-6.88a8.422,8.422,0,0,0,2.07-3.289,434.746,434.746,0,0,0,22.11-40.53,296.265,296.265,0,0,0,15.04-30.74,360.887,360.887,0,0,0,14.3-42.34c3.493-10.412,6.817-21.138,9.879-31.881.594-1.481,1.211-2.964,1.808-4.4,2.581-6.2,5.019-12.048,6.092-18.712a5.989,5.989,0,0,0-.75-3.9c3.646-14.845,6.906-30.116,9.69-45.387,2.742-15.044,5.094-30.481,6.99-45.883,1.2-9.846,2.168-18.939,2.95-27.8,2.736,30.2,6.444,60.973,11.02,91.46,3.164,21.08,6.819,42.39,10.863,63.34s8.579,42.075,13.488,62.83c4.934,20.818,9.523,39.542,15.73,57.882,3.027,8.949,5.578,15.751,8.27,22.055a150.807,150.807,0,0,0,10.76,20.953c-1.525.124-3.073.242-4.571.356-4.576.349-9.308.709-13.928,1.274-9.711,1.178-19.165,2.557-28.1,4.1-8.734,1.516-17.949,3.492-29,6.22-6.962,1.71-13.846,4.109-20.5,6.428l-.017.006c-2.259.787-4.6,1.6-6.9,2.376a1.074,1.074,0,0,0-.787,1.213,1.152,1.152,0,0,0,1.158.976,1.449,1.449,0,0,0,.23-.019c18.408-3.06,36.457-4.984,58.14-7.18l1.5-.151.646-.065c13.587-1.371,27.636-2.789,41.451-2.789,2.94,0,5.812.066,8.535.2,1.764.08,3.544.191,5.29.33.192.016.386.023.575.023a6.145,6.145,0,0,0,5.361-3.072,8.54,8.54,0,0,0,.423-8.032c-1.277-2.538-2.6-5.109-3.879-7.6l-.02-.038c-3.7-7.181-7.519-14.607-10.7-22.167A290.308,290.308,0,0,1,443.5,617.22c-3.4-11.566-6.723-24.192-10.16-38.6l1.4-.282.312-.063c5.211-1.053,10.6-2.141,15.968-2.754a159.516,159.516,0,0,1,18.329-1.077c2.935,0,5.907.086,8.831.256a131.141,131.141,0,0,1,26.789,4.369,121.558,121.558,0,0,1,25.221,9.971,8.63,8.63,0,0,0,4.094,1.082,7.756,7.756,0,0,0,2.306-.352c1.743,12.377,3.668,24.661,5.72,36.51v.259c.3,7.493,1.013,15.081,1.7,22.419v.007c.618,6.575,1.256,13.374,1.6,20.085.222,4.35.317,8.816.408,13.135v.011c.149,7.015.3,14.27,1,21.315a.928.928,0,0,0,.06.57c.214,2.1.456,4.012.74,5.85a.439.439,0,0,0,.461.4.677.677,0,0,0,.62-.4,65.8,65.8,0,0,0,2.19-6.74c6.048-2.362,12.169-4.841,18.089-7.238l.011,0c13.173-5.335,26.795-10.852,40.51-15.447,5.309-1.78,10.741-3.488,15.995-5.14l.022-.007c5.127-1.612,10.429-3.28,15.614-5.012,4.693-1.562,9.68-3.342,16.17-5.771.933-.352,1.865-.675,2.765-.988l.464-.161a10.284,10.284,0,0,0,2.261,1.4c1.168.54,2.549,1.029,4.012,1.546,4.144,1.467,8.837,3.127,10.758,6.674a2.439,2.439,0,0,1,.047.622,1.063,1.063,0,0,0,.023.35s.014,0,.04-.112c-.036.191-.068.357-.091.478-.031.162-.061.315-.079.422a3.4,3.4,0,0,1,.12-.51c0,.056-.052.416-.159,1.07,0,0,0,0,0,0a.017.017,0,0,1-.008,0,.245.245,0,0,0-.025-.165.039.039,0,0,0-.029-.013c-.07,0-.181.154-.255.3a4.683,4.683,0,0,1-.74.221,8.7,8.7,0,0,0-5.594,4.1,10.776,10.776,0,0,0-1.506,6.773,9.057,9.057,0,0,0,3.264,6.061,12.093,12.093,0,0,0,6.466,2.529c.252.026.516.051.8.077h.013c2.1.195,4.979.462,6.5,1.832.649.586.931,1.093.861,1.55-.118.778-1.223,1.287-2.393,1.826l-.006,0c-.349.161-.711.328-1.042.5a87.433,87.433,0,0,1-22.73,7.75,96.846,96.846,0,0,1-19.865,2.074c-1.473,0-2.965-.035-4.435-.1a75.671,75.671,0,0,1-10.908-1.6,65.712,65.712,0,0,0-12.272-1.628.683.683,0,0,0-.62.464.57.57,0,0,0,.16.656c3.681,3.149,8.543,4.528,13.245,5.862l.486.138a101.468,101.468,0,0,0,16.73,3.22,97.7,97.7,0,0,0,33.539-2.12l.669-.16c9.642-2.313,22.847-5.481,23.942-17.07a16.709,16.709,0,0,0-1.225-8.315,18.838,18.838,0,0,0-4.615-6.3,25.888,25.888,0,0,0,1.97-6.769,23.748,23.748,0,0,0,.05-6.881,22.471,22.471,0,0,0-2.356-7.215,27.53,27.53,0,0,0-4.453-6.158,39.016,39.016,0,0,0-12.831-8.738c-.021-.174-.053-.355-.081-.514l-.007-.04c-.011-.062-.022-.124-.032-.186-1.711-9.16-4.6-18.414-7.151-26.58-1.531-4.932-3.136-9.952-4.77-14.92a238,238,0,0,0,29.207-40.638,298.708,298.708,0,0,0,21.084-45.454,342.09,342.09,0,0,0,11.109-36.5c2.865-11.584,5.328-23.751,7.531-37.2,4.094-24.979,6.64-50.695,9.1-75.564,2.769-27.967,5.632-56.884,10.708-84.915,4.38-24.18,11.118-48.169,17.634-71.368,4.181-14.886,8.5-30.278,12.166-45.582,2.627-10.978,4.7-20.726,6.349-29.8,1.943-10.717,3.311-20.588,4.182-30.177a234.735,234.735,0,0,0,.889-28.971q-.026-.739-.049-1.492c-.165-5.126-.335-10.426-1.89-15.137a1.913,1.913,0,0,0-.08-.22,15.394,15.394,0,0,0,1.849-4.081,21.282,21.282,0,0,0,.406-7.5,48.642,48.642,0,0,0-1.8-9.195c-2.018-6.846-5.01-11.978-8-13.729-5.617-3.285-12.154-3.787-18.476-4.273l-.484-.037c-4.891-.382-9.869-.762-14.684-1.129l-.062,0-7.144-.546C728.92,21,711.612,19.607,694.873,18.265l-.046,0h-.013c-34.775-2.788-70.733-5.672-106.119-7.98-1.076-.07-2.2-.147-3.19-.216-4.179-.289-8.5-.587-12.732-.587-7.994,0-14.32,1.11-19.909,3.492a38.981,38.981,0,0,0-11.92,7.951,41.013,41.013,0,0,0-8.35,11.671c-1.9,3.94-3.545,10.49-4.9,19.471-1.219,8.072-1.888,16.1-2.179,20.169-.21,2.93-.418,6.082-.51,9.269a5.75,5.75,0,0,0-3.929,4.19,202.677,202.677,0,0,0-6.309,33.017c-1.33,11.488-1.983,22.939-2.491,33.6-1.614,33.959-1.933,52.592-2.03,65.031-.557,71.674,3.031,148.445,10.97,234.7,3.859,41.94,7.99,80.28,12.631,117.21.1.84.216,1.709.317,2.476l.032.243a137.174,137.174,0,0,0-26.933-9.249,127.081,127.081,0,0,0-28.316-3.233l-.761,0a127.662,127.662,0,0,0-23.975,2.335,86.48,86.48,0,0,0-22.985,7.786c-1.417-6.108-2.789-12.256-4.06-17.99-4.518-20.388-8.679-41.246-12.368-61.994-3.651-20.536-6.939-41.534-9.775-62.41-2.806-20.661-5.246-41.775-7.251-62.756-1.985-20.766-3.6-41.972-4.8-63.03-1.187-20.94-1.968-42.226-2.321-63.267-.352-20.975-.287-42.277.191-63.312.42-18.868,1.467-39.554,3.2-63.24.21-2.907.438-5.93.638-8.6V103c.565-7.52,1.149-15.3,1.572-22.945.327-5.775.181-11.65.039-17.332-.027-1.093-.055-2.223-.08-3.347a13.1,13.1,0,0,0,2.31-2.651,48.9,48.9,0,0,0,6.805-15.843,48.046,48.046,0,0,0,.9-17.216,14.084,14.084,0,0,0-3.434-7.89,10.333,10.333,0,0,0-3.368-2.4,12.02,12.02,0,0,0-4.468-.983l-95.67-3.479c-37.531-1.37-75.668-3-112.548-4.576l-5.059-.216c-1.183,36.549-3.024,73.684-4.805,109.6v.01c-2.229,44.96-4.535,91.45-5.569,137.223-.628,27.74-.707,52.677-.241,76.236a3.664,3.664,0,0,1-1,2.712,4.092,4.092,0,0,1-2.926,1.149,4.283,4.283,0,0,1-2.769-.965,3.76,3.76,0,0,1-1.308-2.9c-.147-7.447-.235-15.484-.275-25.294a147.8,147.8,0,0,1-12.992,8.772l-.017.011c-1.988,1.242-4.044,2.526-6.041,3.836a3.752,3.752,0,0,1-2.069.668,3.988,3.988,0,0,1-3.619-3.018,4.138,4.138,0,0,1-.008-2.438,3.972,3.972,0,0,1,1.658-2.118c1.986-1.3,4.037-2.57,6.021-3.8,5.584-3.45,11.357-7.017,16.21-11.708a4.31,4.31,0,0,1,.826-.621c.107-58.929,3.121-118.8,6.036-176.7v-.03c1.09-21.66,2.217-44.057,3.176-66.079.671-15.437,1.247-30.542,1.71-44.895C160.52,3.225,145.2,2.573,129.865,1.94,119.814,1.523,109.609,1.167,99.74.823,95.911.69,91.951.552,88.005.41L86.614.36l-.08,0C81.671.182,76.642,0,71.681,0Zm627.6,222.77a4.2,4.2,0,0,1-2.747-.966,3.683,3.683,0,0,1-1.247-2.9c.026-26.185,1.148-56.429,3.244-87.462,2-29.567,4.859-59.693,8.276-87.122a4.141,4.141,0,0,1,1.612-2.85,4.771,4.771,0,0,1,2.88-.954,3.7,3.7,0,0,1,2.8,1.133,3.3,3.3,0,0,1,.709,2.672c-3.417,27.43-6.278,57.556-8.276,87.122-2.1,31.035-3.218,61.279-3.244,87.462a3.688,3.688,0,0,1-1.254,2.9A4.212,4.212,0,0,1,699.277,222.77Zm-143.9,462.875a1.628,1.628,0,0,0,1.136-.458,1.331,1.331,0,0,0,.388-.968c-.194-25.078-.912-45.986-2.26-65.8-1.206-17.646-2.876-35.553-4.491-52.87l0-.021c-.4-4.3-.762-8.165-1.117-12.029-3.314-36.006-7.071-76.816-10.166-116.686-3.382-43.564-5.64-81.811-6.9-116.926-.715-19.777-1.163-39.347-1.333-58.166-.178-19.73-.056-39.306.363-58.183.307-13.83.826-27.878,1.327-41.463l.006-.169c.2-5.407.406-11,.6-16.5.13-3.735.294-7.55.452-11.24l0-.06c.478-11.112.972-22.6.635-33.86v-.01c.346-.851.711-1.735,1.034-2.514,1.15-2.779,2.34-5.651,3.3-8.576.775-2.368,1.419-4.829,2.042-7.208v-.005c.583-2.227,1.186-4.53,1.9-6.756.638-1.994,1.405-4.356,2.26-6.759-.431,6.3-.666,12.909-.72,20.2a396.27,396.27,0,0,0,2.77,45.159c.41,3.76.858,7.633,1.37,11.841.476,14.966,1.331,30.217,2.541,45.33,1.479,18.512,3.37,37.26,5.619,55.721,2.245,18.419,4.909,37.06,7.918,55.4,6.005,36.6,13.623,73.491,22.643,109.634,9,36.05,19.516,72.117,31.25,107.2,5.922,17.747,12.335,35.74,19.06,53.479.9,2.364,1.795,4.756,2.664,7.069l0,.012c4.5,11.977,9.156,24.362,14.611,36.1-.353.417-.7.817-1,1.159a.882.882,0,0,0-.154.973.919.919,0,0,0,.809.546.882.882,0,0,0,.605-.259l.6-.569c.979,2.074,2.019,4.187,3.091,6.279a5.158,5.158,0,0,0,1.49,1.79c2.3,5.02,4.524,9.648,6.789,14.149.613,1.225,1.261,2.457,1.889,3.649l0,.007.208.4a6.979,6.979,0,0,0-1.54-.6,13.743,13.743,0,0,0-3.468-.443c-3.892,0-7.6,1.631-11.186,3.208-.884.389-1.8.791-2.707,1.165-5.742,2.368-11.031,4.739-16.17,7.25-8.509,4.149-16.9,8.869-25.013,13.434l-3.408,1.916c-4.555,2.555-9.2,5.116-13.7,7.594-13.138,7.239-26.722,14.724-39.569,22.917a103.573,103.573,0,0,0,2.229-15.439A1.308,1.308,0,0,0,555.381,685.645ZM325.948,156.056a4.071,4.071,0,0,1-1.931-.51c-16.025-8.582-31.888-18.124-48.5-29.17-14.8-9.843-29.835-20.65-45.967-33.039a4.3,4.3,0,0,1-1.418-4.917,3.768,3.768,0,0,1,3.339-2.786,3.462,3.462,0,0,1,2.117.795c16.132,12.39,31.168,23.2,45.966,33.039,16.609,11.046,32.472,20.587,48.5,29.169a3.492,3.492,0,0,1,1.869,4.107,4.6,4.6,0,0,1-1.424,2.316A3.845,3.845,0,0,1,325.948,156.056Zm288.163,4.332a4.546,4.546,0,0,1-4.023-2.3,3.129,3.129,0,0,1,.493-3.407,79.126,79.126,0,0,1,26.779-22.17,4.126,4.126,0,0,1,1.891-.479,3.937,3.937,0,0,1,2.614,1.021,4.6,4.6,0,0,1,1.44,2.356,3.413,3.413,0,0,1-1.907,4.009,70.169,70.169,0,0,0-23.909,19.3A4.189,4.189,0,0,1,614.111,160.388ZM212.784,397.943a3.432,3.432,0,0,1-3.5-2.87c-2.561-11.5-.273-23.835,2.3-34.384a4.081,4.081,0,0,1,3.857-2.936c2.722-.2,5.538-.3,8.37-.3,21.812,0,43.546,5.981,64.564,11.765,5.916,1.628,12.03,3.31,17.985,4.81a3.669,3.669,0,0,1,2.319,1.624,3.94,3.94,0,0,1,.494,2.522,4.024,4.024,0,0,1-3.864,3.706,4.412,4.412,0,0,1-1.075-.139c-5.913-1.489-11.981-3.165-17.85-4.786-20.451-5.648-41.6-11.488-62.819-11.489-1.652,0-3.307.036-4.92.107-1.955,8.427-3.679,18.269-1.651,27.377a3.867,3.867,0,0,1-.723,3.35A4.56,4.56,0,0,1,212.784,397.943Zm410.058-6.676a2.947,2.947,0,0,1-2.133-.9,4.223,4.223,0,0,1-1.086-2.145,4.326,4.326,0,0,1,2.566-4.978c6.238-2.552,14.4-5.482,22.2-5.483a26.462,26.462,0,0,1,6.362.737,21.166,21.166,0,0,1,5.956,2.471,20.412,20.412,0,0,1,6.277,6.059,28.764,28.764,0,0,1,3.622,7.924c1.829,6.161,2.086,12.933,2.121,17.491a3.712,3.712,0,0,1-1.032,2.714,4.143,4.143,0,0,1-2.94,1.15,3.808,3.808,0,0,1-4.028-3.864,61.363,61.363,0,0,0-1.278-13.849,21.923,21.923,0,0,0-2.6-6.461A13.069,13.069,0,0,0,652,387.484a16.564,16.564,0,0,0-7.964-1.841c-6.739,0-14.181,3.046-19.615,5.27l-.1.042A3.894,3.894,0,0,1,622.842,391.267Z" transform="translate(796.737 770.041) rotate(180)"/>
    </g>
    <g id="head_Pomp" data-name="head/Pomp" transform="translate(-16584 -1493)">
      <path id="_Background-2" data-name="ðŸŽ¨ Background" class="cls-1" d="M23.673,93.222c3.861-23.359-8.811-28.206,0-50.411C43.255,1.667,96.62,3.44,135.78.277c43.678-1.674,87.886,4.092,128.152,21.6A206.382,206.382,0,0,1,291.669,36.56c7.668,4.831,6.614,14.017,1.779,19.028,34.865,49.372,14.924,115.643,42.743,167.613,5.139,9.29,11.936,17.62,16.4,27.286,6.79,14.693,7.225,35.746-8.173,45.5-21.687,11.64-33.789-11.407-44.445,22C246.758,434.483,139.759,441.044,38.183,380.31,29.4,375.421,20.426,369.9,13.79,362.217-1.273,345.266.5,321.428.168,300.259q-.279-18.608-.1-37.22C.546,212.781,17.2,143.065,23.673,93.222Z" transform="translate(85.363 80)"/>
      <path id="_Ink-2" data-name="ðŸ– Ink" d="M213.5,0a63.664,63.664,0,0,0-17.335,2.192c-6.537,1.829-12.249,4.954-16.082,8.8a19.513,19.513,0,0,0-4.725,7.3,17.479,17.479,0,0,0-.574,9.23,4.344,4.344,0,0,0,1.759,2.785,5.29,5.29,0,0,0,3.038.911,5.512,5.512,0,0,0,4.713-2.457l.508-.813c2.374-3.767,5.311-7.974,10.133-10.236a33.106,33.106,0,0,1,8.577-2.587,57.572,57.572,0,0,1,8.952-.734c.369,0,.741-.006,1.106-.006,16.041,0,32.663,3.965,48.314,8.026a276.505,276.505,0,0,1,44.1,15.351,195.281,195.281,0,0,1,40.089,23.819A69.1,69.1,0,0,1,359.6,75.3a50.238,50.238,0,0,1,4.841,8.2,45.524,45.524,0,0,1,3.143,9.2c2.949,13.064,1.28,27.06-.334,40.6-.352,2.949-.715,6-1.016,8.944-2.936,28.85-6.523,59.481-11.63,99.319l-.85,6.611q-.438,3.395-.879,6.79l-.006.045c-3.235,24.948-6.581,50.746-8.215,76.255a7.821,7.821,0,0,0-1.44,3.42l-.279,1.81a15.037,15.037,0,0,0-.111,4.28c.01,5.17.154,10.087.439,15.031.05.9.09,1.806.121,2.689-4.873-1.074-10.028-2.012-15.76-2.87a504.4,504.4,0,0,0-74.865-5.6c-12.419,0-24.993.466-37.375,1.386-17.274,1.287-35.484,3.5-55.67,6.771-9.676,1.564-19.134,3.273-28.11,5.08-5.5,1.1-10.992,2.541-16.306,3.935l-.052.013c-1.194.313-2.428.637-3.643.952a56.872,56.872,0,0,1-7.754-16.365,52.828,52.828,0,0,1-2.076-17.925c.338-5.736,2.157-11.335,3.916-16.749a97.26,97.26,0,0,0,3.24-11.57,32.09,32.09,0,0,0,.244-11.95,20.649,20.649,0,0,0-9.133-13.951c-4.622-3.148-10.51-5.022-15.665-6.531l-4.73-1.367a13.665,13.665,0,0,1-4.588-1.989,6.517,6.517,0,0,1-2.353-4.472c-.8-5.286-.342-11.044.1-16.612.189-2.4.367-4.66.453-6.9.108-2.743.226-5.511.341-8.188.262-6.094.532-12.4.679-18.6.029-1.231.064-2.484.1-3.7v-.026c.092-3.332.188-6.776.182-10.158a13.924,13.924,0,0,0-1.77-7.639,28.638,28.638,0,0,0,2.64-3.971.449.449,0,0,0-.008-.454.507.507,0,0,0-.423-.252.424.424,0,0,0-.307.136,26.17,26.17,0,0,1-3.151,2.791,25.933,25.933,0,0,0-1.971-2.141l-.059.08a6.343,6.343,0,0,0-4.5-1.876,7.079,7.079,0,0,0-4.616,1.8l-.774.671c-2.029,1.778-3.629,3.392-4.244,6.6v.007c-.03.158-.06.317-.079.473-.34.012-.694.018-1.053.018a31,31,0,0,1-14.958-3.857,37.011,37.011,0,0,1-16.6-18.121,20.976,20.976,0,0,1,4.588-4.019.228.228,0,0,0,.1-.264.242.242,0,0,0-.226-.174.259.259,0,0,0-.112.027,21.963,21.963,0,0,0-4.88,3.13,44.185,44.185,0,0,1-2.49-9.63,42.66,42.66,0,0,1,1.39-18.747,30.47,30.47,0,0,1,4.117-8.41,23.932,23.932,0,0,1,6.753-6.453,29.573,29.573,0,0,1,15.67-4.6h.079a30.777,30.777,0,0,1,7.632,1.1c.417.1.841.218,1.251.329l.011,0a16.04,16.04,0,0,0,4.178.748,8.711,8.711,0,0,0,4.451-1.2l-.38-.033a2.164,2.164,0,0,1-.58-.084,5.731,5.731,0,0,1,1.12-.041,5.216,5.216,0,0,0,4.4-2.6,5.345,5.345,0,0,0,.051-5.167l-.241-.545L69.5,118.6l-.064-.138-.145-.936-.017-.1,0-.023c-.008-.049-.016-.1-.025-.149l-.056-.19a.9.9,0,0,0-.034-.091l6-9.148C82.23,97.061,89.867,85.681,98.588,75.262a268.2,268.2,0,0,1,19.08-20.71c3.92-3.8,8.252-6.264,12.838-8.876,2.4-1.366,4.88-2.779,7.281-4.395a7.594,7.594,0,0,0,3.364-5.5,6.531,6.531,0,0,0-1.963-5.344,14.811,14.811,0,0,0-10.742-4.522,23.8,23.8,0,0,0-11.228,3.233,43.659,43.659,0,0,0-9.55,7.16C100.982,42.9,94.531,51.2,87.948,61.692A181.729,181.729,0,0,0,74.8,86.43a137.224,137.224,0,0,0-4.859,13.04,119.357,119.357,0,0,0-3.41,13.543,14.724,14.724,0,0,0-5.171-2.811,40.866,40.866,0,0,0-11.84-1.98c-.455-.015-.918-.023-1.376-.023A48.386,48.386,0,0,0,27.5,113.072,40.771,40.771,0,0,0,12.433,125.38a48.085,48.085,0,0,0-8.188,17.34A58.628,58.628,0,0,0,3.4,167.084,53.91,53.91,0,0,0,12.618,189.4a132.842,132.842,0,0,0-4.009,15.624c-.326,1.528-.634,2.968-.952,4.376l-.633,2.748c-2.043,8.925-3.506,16.317-4.6,23.263a188.3,188.3,0,0,0-2.345,23.51c-.555,17.373,1.952,32.521,7.662,46.31a88.887,88.887,0,0,0,5.531,11.281c.555.944,1.226,1.89,1.937,2.892,1.463,2.061,2.975,4.191,3.522,6.428,1.208,4.879-3.438,9.969-7.538,14.459a38.79,38.79,0,0,0-5.012,6.221A21.567,21.567,0,0,0,3.223,357.2a16.187,16.187,0,0,0,5.955,12.387,28.516,28.516,0,0,0-3.61,14.515,25.378,25.378,0,0,0,4.94,14.425,28.389,28.389,0,0,0,17.86,11.09,29.483,29.483,0,0,0,5,.408,34.993,34.993,0,0,0,9.332-1.278,343.285,343.285,0,0,0,41.811,33.189,322.178,322.178,0,0,0,46.559,26.042,372.66,372.66,0,0,0,77.02,25.117,392.454,392.454,0,0,0,80.746,8.39,390.577,390.577,0,0,0,40.024-2.057,378.722,378.722,0,0,0,96.618-22.612l2.718-1.05,1.351-.518c7.324-2.8,14.9-5.7,20.373-11.35a23.369,23.369,0,0,0,4.136-5.811,22.554,22.554,0,0,0,2.134-6.634,21.017,21.017,0,0,0-2.439-13.675,28.49,28.49,0,0,0-7.571-8.573,37.307,37.307,0,0,0-10.159-5.477,60.3,60.3,0,0,0,7.21-6.99,11.578,11.578,0,0,0,2.966-7.427,10.179,10.179,0,0,0-.7-3.873,10.72,10.72,0,0,0-2.266-3.509,61.571,61.571,0,0,0-13.418-10.561,62.193,62.193,0,0,0-15.772-6.519,30.756,30.756,0,0,0-2.09-18.59,26.209,26.209,0,0,0-6.735-9.146,32.116,32.116,0,0,0-9.5-5.62c-6.13-2.4-13.759-3.611-22.675-3.611-2.167,0-4.445.072-6.77.215l-.5.031-.92-10.53a12.68,12.68,0,0,0-2.821-7.191,10.772,10.772,0,0,0-6.729-3.629c-.2-.03-.4-.05-.6-.069,9.113-32.955,14.63-67.314,19.5-99.681,2.3-15.271,4.53-31.445,7.233-52.445l.747-5.835c.545-4.289,1.132-8.664,1.7-12.894l0-.013c1.935-14.428,3.935-29.347,4.738-44.033a94.548,94.548,0,0,0-.142-12.764,75.145,75.145,0,0,0-2.017-12.305,64.144,64.144,0,0,0-4.185-11.681,61.179,61.179,0,0,0-6.645-10.89c-8.7-11.377-20.99-21.056-36.54-28.77a383.267,383.267,0,0,0-48.664-20.246c-8.414-2.811-16.917-5.281-25.273-7.34-8.616-2.124-17.331-3.875-25.9-5.2l-2.332-.359A156.011,156.011,0,0,0,213.5,0ZM74.4,147.717a6.4,6.4,0,0,0-3.9,1.335c-1.718,1.286-3.277,2.625-4.784,3.92-3.712,3.189-7.218,6.2-12.436,7.89a54.223,54.223,0,0,1-16.1,2.738,32.252,32.252,0,0,1-5.581-.459.856.856,0,0,0-.144-.012,1,1,0,0,0-.909.625.7.7,0,0,0,.223.8,36.136,36.136,0,0,0,9.929,6.413,28.833,28.833,0,0,0,11.393,2.271c.931,0,1.889-.042,2.849-.123A47.508,47.508,0,0,0,69.745,169.4a33.212,33.212,0,0,0,6.663-3.879,23.462,23.462,0,0,0,5.189-5.365,7.111,7.111,0,0,0,.2-7.535A8.838,8.838,0,0,0,74.4,147.717Z" transform="translate(456.451 501.49) rotate(180)"/>
      <g id="FACE" transform="translate(123.998 242)">
        <path id="_Ink-3" data-name="ðŸ– Ink" d="M108.034,0A38.093,38.093,0,0,0,93.588,2.884,40.81,40.81,0,0,0,84.158,8.3a40.162,40.162,0,0,0-7.676,7.743,7.93,7.93,0,0,0-1.6,6.139,8.851,8.851,0,0,0,3.445,5.547,8.488,8.488,0,0,0,5.051,1.758,7.33,7.33,0,0,0,1.128-.087,7.8,7.8,0,0,0,5.222-3.452l.309-.426a26.954,26.954,0,0,1,9.876-8.286,22.42,22.42,0,0,1,9.794-2.286,21.7,21.7,0,0,1,2.427.137,25.508,25.508,0,0,1,10.783,3.792A50.492,50.492,0,0,1,132.05,26.5c.654.668,1.346,1.392,2.245,2.348a3.553,3.553,0,0,0,1.863,1.435,3.818,3.818,0,0,0,1.212.193,4.125,4.125,0,0,0,3.379-1.764,3.768,3.768,0,0,0,.639-2.48,22.763,22.763,0,0,0-2.7-8.818,29.437,29.437,0,0,0-5.773-7.413,37.116,37.116,0,0,0-8.744-6.1,36.41,36.41,0,0,0-9.7-3.328A35.743,35.743,0,0,0,108.034,0ZM118.2,57.582h0a34.911,34.911,0,0,0-12.448,2.509A62.872,62.872,0,0,0,91.114,68.4a5.625,5.625,0,0,0-2.043,3.249,6.73,6.73,0,0,0,.29,3.648,8.3,8.3,0,0,0,2.464,3.563,6,6,0,0,0,3.841,1.5,5.45,5.45,0,0,0,2.971-.912q.473-.363.99-.764l.011-.008A79.258,79.258,0,0,1,108.8,72.3c4.141-2.357,7.734-3.5,10.984-3.5a11.861,11.861,0,0,1,4.641.912,12.97,12.97,0,0,1,4.322,3.062,13.254,13.254,0,0,1,2.515,10.671,20.155,20.155,0,0,1-5.35,9.465,39.006,39.006,0,0,1-8.1,6.536,2.511,2.511,0,0,0-.68,2.887,3.768,3.768,0,0,0,1.248,1.8,3.831,3.831,0,0,0,2.391.79,5.094,5.094,0,0,0,.859-.076,27.157,27.157,0,0,0,9.55-3.45,21.663,21.663,0,0,0,6.423-5.922,23.527,23.527,0,0,0,4.1-15.718,25.9,25.9,0,0,0-2.1-8.25,24.069,24.069,0,0,0-4.734-7.089A22.625,22.625,0,0,0,118.2,57.582Zm-81,56.23a8.163,8.163,0,0,0-5.3,2.076,8.252,8.252,0,0,0-2.778,5.336,60.1,60.1,0,0,0,.319,15.651c.189,1.521.384,3.093.52,4.789a9.368,9.368,0,0,0,3.551,6.7,10.938,10.938,0,0,0,6.728,2.365,8.292,8.292,0,0,0,5.088-1.6,7.543,7.543,0,0,0,2.81-5,41.986,41.986,0,0,0-4.384-25.878,8.3,8.3,0,0,0-2.928-3.388A6.755,6.755,0,0,0,37.2,113.812Zm118.9,3.549a7.141,7.141,0,0,0-5.6,2.4,21.875,21.875,0,0,0-3.419,5.8,25.265,25.265,0,0,0-1.741,6.987c-.516,5.332.918,9.847,4.039,12.715a8.385,8.385,0,0,0,.647.986c1.411,1.848,3.777,4.05,7.04,4.05a7.626,7.626,0,0,0,2.138-.315,10.3,10.3,0,0,0,6.877-6c1.3-3,1.593-7.017.851-11.608a38.852,38.852,0,0,0-3.52-10.95,7.107,7.107,0,0,0-3.042-3A9.218,9.218,0,0,0,156.1,117.362ZM1.316,154.651a1.3,1.3,0,0,0-1.082.664,1.449,1.449,0,0,0-.087,1.422,49.327,49.327,0,0,0,11.061,14,68.38,68.38,0,0,0,14.8,10.112,63.657,63.657,0,0,0,17.578,6.133l1.877.328a45.739,45.739,0,0,0,7.671.831c4.28,0,7.377-1.155,9.467-3.53a8.042,8.042,0,0,0,1.9-5.713,5.234,5.234,0,0,0-1.9-3.735c-3.008-2.434-6.172-2.932-10-2.932-.788,0-1.6.02-2.39.04H50.19c-.757.019-1.616.041-2.468.041-.785,0-1.485-.018-2.14-.056A67.59,67.59,0,0,1,30.7,169.719c-10.582-3.024-19.256-8.511-28.7-14.843A1.233,1.233,0,0,0,1.316,154.651Zm181.034,7.573h0c-.269.064-.535.13-.792.2a44.781,44.781,0,0,0-8.68,3.387L170.06,167.2a78.293,78.293,0,0,1-10.067,4.289,118.8,118.8,0,0,1-22.931,5.064,9.369,9.369,0,0,0-4.6,1.746,6.894,6.894,0,0,0-2.573,3.919,7.011,7.011,0,0,0,.793,5.874,7.483,7.483,0,0,0,3.632,3.129,8.166,8.166,0,0,0,3.1.591,9.118,9.118,0,0,0,1.786-.179l1.436-.294c9.979-2.086,18.081-4.717,24.767-8.044a50.077,50.077,0,0,0,10.893-7.162,31.794,31.794,0,0,0,7.7-9.951c.269-2.078.02-2.593-.259-2.942l-.08-.1c-.023-.031-.046-.063-.07-.1a1.991,1.991,0,0,0-1.23-.818Z" transform="translate(184.105 191.81) rotate(180)"/>
      </g>
      <g id="accessories_Glasses" data-name="accessories/Glasses" transform="translate(67 261)">
        <path id="_Ink-4" data-name="ðŸ– Ink" d="M183.7,0a64.486,64.486,0,0,0-23.943,4.718c-8.039,3.286-14.566,8-18.875,13.624-4.916,6.87-8.824,18.443-10.722,31.752a119.556,119.556,0,0,0-1.186,19.672,87.236,87.236,0,0,0,2.3,18.6l-.057.025a.954.954,0,0,0-.093.043c-.065-.7-.986-1.288-2.66-1.7a26.2,26.2,0,0,0-5.942-.588c-5.149,0-11.13,1.047-12.883,3.386a2.314,2.314,0,0,0-.46,1.869c-10.9-.214-22.722-1-36.127-2.391-11.958-1.245-24.079-2.856-35.8-4.413-8.087-1.075-16.445-2.185-24.721-3.173-3.906-.4-4.1-3.438-4.284-6.379A13.486,13.486,0,0,0,7.712,71.5a3.3,3.3,0,0,0-2.272-2.2l-.193,0a4.759,4.759,0,0,0-3.769,1.561A6.686,6.686,0,0,0,.038,74.729a16.2,16.2,0,0,0,2.124,8.8,13.547,13.547,0,0,0,2.815,3.588,7.929,7.929,0,0,0,3.669,1.922c8.057.92,16.319,2.137,24.309,3.314,17,2.505,34.585,5.095,51.783,5.095a137.632,137.632,0,0,0,25.292-2.172,7.952,7.952,0,0,0,6.952,3.258,32.507,32.507,0,0,0,8.2-1.51c1.461-.4,2.84-.778,4.029-.973a17.775,17.775,0,0,0,5.765,10.407,35.915,35.915,0,0,0,12.076,6.965,79.291,79.291,0,0,0,16.26,3.9,131.512,131.512,0,0,0,18.318,1.216c17.335,0,34.649-3,44.109-7.642,17.385,2.186,35.425,3.722,52.872,5.208l.025,0c7.054.6,14.349,1.222,21.4,1.87a93.637,93.637,0,0,0,30.765,5.726,59.389,59.389,0,0,0,18.546-2.81c.292.018.546.026.775.026,1.51,0,1.749-.369,2.184-1.039.086-.132.183-.281.3-.438a24.209,24.209,0,0,0,8.533-7.147,28,28,0,0,0,5.137-11.065,24.435,24.435,0,0,0,11.47,2.494,50.661,50.661,0,0,0,7.164-.57,8.006,8.006,0,0,0,2.727-2.024,2.4,2.4,0,0,0,.551-1.985,3.943,3.943,0,0,0-1.614-2.2,13.459,13.459,0,0,0-3.379-1.8,26.21,26.21,0,0,0-8.936-1.667c-3.67,0-6.145.959-6.969,2.7a96.483,96.483,0,0,0,.012-21.466,112.447,112.447,0,0,0-4.99-23.411A79.121,79.121,0,0,0,351.89,30.177a46.183,46.183,0,0,0-16.287-14.6,40.123,40.123,0,0,0-19.032-4.962,36.947,36.947,0,0,0-15.9,3.6,41.333,41.333,0,0,0-13.3,10.088c-8.693,9.817-13.231,23.466-12.779,38.432a3.581,3.581,0,0,0-2.274,2.035,13.508,13.508,0,0,0-1.016,5.656,47.472,47.472,0,0,0,.618,7.514,95.591,95.591,0,0,0,3.3,14.009,104.2,104.2,0,0,1-17.141,1.77,47.122,47.122,0,0,1-15.662-2.485c1.423-4.385,1.357-11.118-.189-19.47a135.6,135.6,0,0,0-7.771-25.716,133.687,133.687,0,0,0-12.723-24.334,69.319,69.319,0,0,0-7.4-9.265,32.458,32.458,0,0,0-7.648-6.06,29.863,29.863,0,0,0-10.28-4.809A48.912,48.912,0,0,0,183.7,0h0ZM175.79,108.9c-9.656,0-14.663-.764-17.945-1.43a38.225,38.225,0,0,1-16.045-6.933,19.683,19.683,0,0,1-3.115-5.856,47.111,47.111,0,0,1-2.033-8.216A101.616,101.616,0,0,1,135.7,65.7a123.382,123.382,0,0,1,2.989-21.96c1.7-7.228,4-13.336,6.668-17.664,1.49-2.64,6.05-7.03,12.877-10.889a54.862,54.862,0,0,1,11.1-4.773A44.615,44.615,0,0,1,182.21,8.433,36.945,36.945,0,0,1,195.869,11a41.063,41.063,0,0,1,13.441,8.875,66.36,66.36,0,0,1,12.228,16.943,130.3,130.3,0,0,1,10.017,26.768c2.431,6.733,3.657,12.788,3.644,18a24.182,24.182,0,0,1-3.317,12.78,22.421,22.421,0,0,1-6.344,6.617,34.918,34.918,0,0,1-9.079,4.4,63.055,63.055,0,0,1-11.3,2.49,111.129,111.129,0,0,1-13,.9c-.8-.013-1.618-.019-2.515-.019-2.211,0-4.42.037-6.759.076H182.8C180.518,108.859,178.165,108.9,175.79,108.9Zm156.067,4.65A93.042,93.042,0,0,1,313.077,112a47.562,47.562,0,0,1-17.482-7.072c-5.371-3.619-9.426-8.97-12.052-15.906a50.609,50.609,0,0,1-2.6-10.059,66.154,66.154,0,0,1-.764-10.491,6.55,6.55,0,0,0-.614-3.7,4.584,4.584,0,0,0-2.112-1.942,81.746,81.746,0,0,1,5.746-19.692,51.38,51.38,0,0,1,8.916-13.9,35.1,35.1,0,0,1,11.081-8.241,29.047,29.047,0,0,1,12.241-2.719h.006c9.563,0,18.974,4.719,26.5,13.289,8.279,9.428,13.8,22.866,15.963,38.86a94.407,94.407,0,0,1,1.343,19.447,39.555,39.555,0,0,1-1.429,8.9,22.243,22.243,0,0,1-3.642,7.389,17.569,17.569,0,0,1-6.982,5.387,27.369,27.369,0,0,1-10.906,1.989c-.358,0-.724,0-1.086-.014C334,113.54,332.909,113.549,331.857,113.549ZM229.2,108.815h0a33,33,0,0,0,7.56-6.924,29.632,29.632,0,0,0,5.083-8.849,26.866,26.866,0,0,0,10.338,4.47,52.188,52.188,0,0,0,11.243,1.071c1.4,0,2.867-.036,4.494-.112.493-.032,1.01-.053,1.558-.076,2.62-.109,5.589-.232,7.806-1.523a41.462,41.462,0,0,0,5.351,8.532,37.953,37.953,0,0,0,6.769,6.564c-2.777-.23-5.611-.474-8.353-.709h-.014C266.4,110,251.279,108.7,236.573,108.7,234.053,108.7,231.571,108.739,229.2,108.815Z" transform="translate(388.23 123.706) rotate(180)"/>
      </g>
    </g>
  </g>
</svg>
